<svg xmlns="http://www.w3.org/2000/svg" xmlns:xlink="http://www.w3.org/1999/xlink" width="796.9" height="200.102" viewBox="0 0 796.9 200.102">
  <defs>
    <linearGradient id="linear-gradient" x1="8.21" y1="4.481" x2="9.214" y2="4.481" gradientUnits="objectBoundingBox">
      <stop offset="0" stop-color="#21386d"/>
      <stop offset="0.907" stop-color="#fff"/>
      <stop offset="1" stop-color="#fff"/>
    </linearGradient>
  </defs>
  <g id="logo_skipper" data-name="logo skipper" transform="translate(-302 -284)">
    <path id="Path_1145" data-name="Path 1145" d="M314,482.9H419.1a12.035,12.035,0,0,0,12-12V296a12.035,12.035,0,0,0-12-12H314a12.035,12.035,0,0,0-12,12V470.9a12.035,12.035,0,0,0,12,12Z" fill="#fff"/>
    <g id="Group_2606" data-name="Group 2606">
      <g id="Group_2603" data-name="Group 2603">
        <path id="Path_1146" data-name="Path 1146" d="M323.8,366.5a18.7,18.7,0,0,0-.3,3.4,21.25,21.25,0,0,0,6.8,15c3.6,3.1,9.1,4.8,14,5.9l3,.6a158.6,158.6,0,0,0,30.7,3.4,10.616,10.616,0,0,1,1.5.1c.4,0,.6-.1.6,0,.9-2.5,1.4-5.4-1.2-6.9a10.733,10.733,0,0,0-4.7-1c-3-.1-5.9-.2-8.9-.3-6-.2-20.5.4-22.2-8.2a8.848,8.848,0,0,1,1.6-6.3c4.5-7.1,9-14.2,13.5-21.4,2.1-3.4,4.1-6.9,6.2-10.3-.7,1.4-1.3,2.6-1.8,3.4,0,0,7.5-11,18.3-6.4a18.267,18.267,0,0,1,6.7,4.6c1.7,2,1.9,4.7,2.3,7.2.1.6.6.4.8,0,3-4.7,3.6-12.1,1.2-17.2l-.3-.6a20.668,20.668,0,0,0-14.2-13.2c-9.6-2.6-18.4-1.7-26.4,4.9-6.5,5.3-11.3,12.8-15.7,20-3.9,6.5-9.3,15.2-12.1,24.2C323.5,367.2,323.6,366.8,323.8,366.5Z" fill="url(#linear-gradient)"/>
        <g id="Group_2602" data-name="Group 2602">
          <path id="Path_1147" data-name="Path 1147" d="M362.8,343.7s7.5-11,18.3-6.4a18.266,18.266,0,0,1,6.7,4.6c1.7,2,1.9,4.7,2.3,7.2.1.6.6.4.8,0,3-4.7,3.6-12.1,1.2-17.2-2.5-5.5-9.2-9.3-14.8-7.5C370.2,326.7,365.3,339.3,362.8,343.7Z" fill="url(#linear-gradient)"/>
        </g>
        <path id="Path_1148" data-name="Path 1148" d="M344.5,390.3c-4.9-1.1-10.4-2.7-14-5.9a20.478,20.478,0,0,1-6.8-15,19.526,19.526,0,0,1,.3-3.4c-1.4,2.9-3.2,7.1-2.9,15,.5,9.8,8.6,16.6,17.2,19.6,7.2,2.5,15,3.7,22.5,5.3,4.3.9,8.5,1.9,12.8,2.8a.68.68,0,0,0,.8-.4l5.8-13.8c.2-.5,0-.2-.5-.2-.7,0-1.4-.1-1.5-.1a158.6,158.6,0,0,1-30.7-3.4C346.5,390.7,345.5,390.5,344.5,390.3Z" fill="url(#linear-gradient)"/>
      </g>
      <g id="Group_2605" data-name="Group 2605">
        <path id="Path_1149" data-name="Path 1149" d="M409.8,401.1a18.7,18.7,0,0,0,.3-3.4,20.766,20.766,0,0,0-6.7-15.1c-3.6-3.2-9-4.9-13.9-6-1-.2-2-.5-3-.7a158.978,158.978,0,0,0-30.7-3.7c-.1,0-.9-.1-1.5-.1-.4,0-.6.1-.6,0-1,2.5-1.4,5.3,1.1,6.9a10.733,10.733,0,0,0,4.7,1c3,.1,5.9.3,8.9.4,6,.3,20.6-.2,22.1,8.5a8.917,8.917,0,0,1-1.7,6.3c-4.6,7.1-9.2,14.1-13.7,21.2-2.2,3.4-4.2,6.8-6.3,10.3.7-1.4,1.3-2.6,1.8-3.4,0,0-7.6,10.9-18.4,6.2a16.344,16.344,0,0,1-6.6-4.7c-1.6-2.1-1.8-4.7-2.2-7.2-.1-.6-.6-.4-.8,0a19.322,19.322,0,0,0-1.4,17.2l.3.6a20.67,20.67,0,0,0,14.1,13.3c9.6,2.7,18.4,1.9,26.4-4.7,6.5-5.3,11.5-12.7,15.9-19.9,4-6.4,9.4-15.1,12.4-24.1a5.362,5.362,0,0,0-.5,1.1Z" fill="url(#linear-gradient)"/>
        <g id="Group_2604" data-name="Group 2604">
          <path id="Path_1150" data-name="Path 1150" d="M370.5,423.5s-7.6,10.9-18.4,6.2a16.345,16.345,0,0,1-6.6-4.7c-1.6-2.1-1.8-4.7-2.2-7.2-.1-.6-.6-.4-.8,0a19.322,19.322,0,0,0-1.4,17.2c2.4,5.5,9.1,9.4,14.8,7.6C362.9,440.4,368,427.8,370.5,423.5Z" fill="url(#linear-gradient)"/>
        </g>
        <path id="Path_1151" data-name="Path 1151" d="M389.3,377.1c4.9,1.1,10.4,2.8,13.9,6a21.155,21.155,0,0,1,6.7,15.1,19.532,19.532,0,0,1-.3,3.4c1.4-2.9,3.3-7.1,3-15-.4-9.8-8.4-16.6-17-19.8-7.2-2.6-15-3.8-22.5-5.5-4.3-1-8.5-2-12.8-3a.68.68,0,0,0-.8.4l-6,13.7c-.2.5,0,.2.5.2.7,0,1.4.1,1.5.1a158.98,158.98,0,0,1,30.7,3.7A28.17,28.17,0,0,1,389.3,377.1Z" fill="url(#linear-gradient)"/>
      </g>
    </g>
    <path id="Path_1152" data-name="Path 1152" d="M468.7,339.5V405L519,360.9a5.538,5.538,0,0,1,3.7-1.3,5.4,5.4,0,0,1,5.4,5.2,5.281,5.281,0,0,1-2,3.9L501.9,390l25.5,52.8a5.289,5.289,0,0,1,.7,2.5,5.109,5.109,0,0,1-5.2,4.9,5.97,5.97,0,0,1-5.7-3.7l-23.8-49.1L468.7,419v26.3a5.043,5.043,0,0,1-5.2,4.9c-3,0-5.5-2.2-5.5-4.9V339.5a12.441,12.441,0,0,0-12.4-12.6,5.238,5.238,0,0,1-5.4-5c0-3,2.7-5,5.5-5C458.9,316.9,468.7,327,468.7,339.5Z" fill="#fff"/>
    <path id="Path_1153" data-name="Path 1153" d="M574.2,381.5v63.1c0,2.7-2.7,4.9-5.5,4.9-3.2,0-5.4-2.2-5.4-4.9V381.5c0-7.4-5.5-12.9-12.4-12.9-3,0-5.7-2.2-5.7-4.9,0-2.9,2.7-5,5.7-5C563.9,358.7,574.2,368.4,574.2,381.5Zm-6-60.4v10.6a5.549,5.549,0,0,1-5.7,5.2c-3.2,0-5.9-2.5-5.9-5.2V321.1c0-2.7,2.7-5,5.9-5S568.2,318.4,568.2,321.1Z" fill="#fff"/>
    <path id="Path_1154" data-name="Path 1154" d="M630.5,359.5c20.8,0,37.4,16.3,37.4,36.7v17.1a37.111,37.111,0,0,1-37.4,36.9H601.8v28.9c0,2.9-2.3,5-5.4,5a5.061,5.061,0,0,1-5.2-5V396.2c0-20.5,16.3-36.7,37.3-36.7Zm-2,9.9a26.78,26.78,0,0,0-26.7,26.8v44.1h28.5A27.042,27.042,0,0,0,657,413.5V396.2a26.675,26.675,0,0,0-26.5-26.8Z" fill="#fff"/>
    <path id="Path_1155" data-name="Path 1155" d="M724.1,359.5c20.8,0,37.4,16.3,37.4,36.7v17.1a37.111,37.111,0,0,1-37.4,36.9H695.4v28.9c0,2.9-2.3,5-5.4,5a5.061,5.061,0,0,1-5.2-5V396.2c0-20.5,16.3-36.7,37.3-36.7Zm-2,9.9a26.78,26.78,0,0,0-26.7,26.8v44.1h28.5a27.042,27.042,0,0,0,26.7-26.8V396.2a26.675,26.675,0,0,0-26.5-26.8Z" fill="#fff"/>
    <path id="Path_1156" data-name="Path 1156" d="M820.1,359.5c15.4,0,27.4,11.1,27.4,26s-11.7,25.8-27.4,25.8H789.6v5.9c0,13.3,10.9,23.2,23.8,23.2h21.5c2.9,0,5.2,1.8,5.2,4.9a4.94,4.94,0,0,1-5.2,5H812.6a33.483,33.483,0,0,1-33.7-33.2V392.4a32.928,32.928,0,0,1,33.2-32.9Zm-8.5,9.9a21.567,21.567,0,0,0-22,22v10.1h30c9.4,0,17.1-6.9,17.1-16.1,0-9.4-7.7-15.9-16.8-15.9h-8.3Z" fill="#fff"/>
    <path id="Path_1157" data-name="Path 1157" d="M905.1,358.6a4.969,4.969,0,1,1,0,9.9h-2.5c-14.6,0-26.9,12.4-26.9,26.8v49c0,3-2.5,5-5.5,5a4.94,4.94,0,0,1-5.2-5V395.1c0-20.1,16.8-36.6,37.8-36.6h2.3Z" fill="#fff"/>
    <path id="Path_1158" data-name="Path 1158" d="M961.7,316c2.9,0,5.5,2.2,5.5,4.9,0,2.9-2.7,5-5.5,5h-5.5a17.925,17.925,0,0,0-17.8,17.9v14.8h23.2c2.9,0,5.5,1.8,5.5,4.9,0,2.7-2.7,5-5.5,5H938.4v75.8c0,3-2,5-5.4,5s-5.4-2-5.4-5V343.8c0-15.6,13.1-27.8,28.5-27.8Z" fill="#fff"/>
    <path id="Path_1159" data-name="Path 1159" d="M1007,339.6V445.4c0,2.7-2.5,4.9-5.5,4.9a4.981,4.981,0,0,1-5.2-4.9V339.6A12.38,12.38,0,0,0,984,326.9c-3,0-5.7-2-5.7-4.9,0-3,2.7-5,5.7-5C997,317,1007,327,1007,339.6Z" fill="#fff"/>
    <path id="Path_1160" data-name="Path 1160" d="M1098.9,364.3a13.5,13.5,0,0,1-.3,1.8l-37.5,98.1c-4.2,10.8-11.4,19.5-23.7,19.5-3.2,0-5.7-2-5.7-4.9a4.94,4.94,0,0,1,5-5.2c7.2,0,11.3-5.9,13.4-11.8l6.7-17.8-29.7-78a7.449,7.449,0,0,1-.5-2.2,5.11,5.11,0,0,1,5.4-5c3.2,0,4.5,1.3,5.2,3.2l25.4,67.6,25.4-67.4a5.693,5.693,0,0,1,10.9,2.1Z" fill="#fff"/>
  </g>
</svg>
