<svg xmlns="http://www.w3.org/2000/svg" width="256" height="256" viewBox="0 0 256 256">
  <g id="Group_21690" data-name="Group 21690" transform="translate(9079 22548)">
    <g id="Group_11165" data-name="Group 11165" transform="translate(508 946)">
      <g id="Group_11164" data-name="Group 11164">
        <g id="Group_11163" data-name="Group 11163" transform="translate(-34)">
          <rect id="Rectangle_5073" data-name="Rectangle 5073" width="256" height="256" rx="128" transform="translate(-9553 -23494)" fill="#fff"/>
        </g>
        <g id="Group_21691" data-name="Group 21691" transform="translate(-9527.14 -23447.662)">
          <path id="Path_110554" data-name="Path 110554" d="M669.332,236.08a36.473,36.473,0,0,0-14.089-22.463c-.133-.1-.263-.193-.377-.293a36.518,36.518,0,0,0-25.648-6.7l-.038.006a36.371,36.371,0,0,0,13.412,21.984l.021.017a7.539,7.539,0,0,1,.674.461c.133.1.263.193.392.27a1.281,1.281,0,0,1,.247.216c.044.033.108.062.151.093a16.955,16.955,0,1,1-13.195-3.544c.322-.05.645-.1.952-.127a41.836,41.836,0,0,1-8.3-18.232,36.5,36.5,0,1,0,46.012,29.582c-.066-.438-.131-.857-.214-1.272" transform="translate(-596.948 -163.306)" fill="#8b8e90"/>
          <path id="Path_110559" data-name="Path 110559" d="M643.165,186.046a36.539,36.539,0,0,0-30.549,41.607c.067.436.135.873.218,1.288a36.524,36.524,0,0,0,14.07,22.467,4.74,4.74,0,0,0,.393.27,36.413,36.413,0,0,0,25.652,6.717c.421-.046.838-.108,1.276-.176a36.507,36.507,0,1,0-11.059-72.172m-4.683,49.593a15.941,15.941,0,1,1,.376.292c-.131-.1-.264-.193-.376-.292" transform="translate(-580.562 -185.621)" fill="#8b8e90"/>
          <path id="Path_110561" data-name="Path 110561" d="M658.407,208.807a36.542,36.542,0,0,0-30.549,41.607c.068.438.133.855.218,1.291a36.521,36.521,0,0,0,14.07,22.465c.129.079.262.174.392.272a36.356,36.356,0,0,0,25.652,6.715l.019,0a35.868,35.868,0,0,0-3.893-10.79,13.33,13.33,0,0,0-.9-1.538c-.309-.5-.639-.992-.967-1.486a35.8,35.8,0,0,0-7.679-8.186l-.131-.1a.8.8,0,0,0-.066-.048,4.011,4.011,0,0,1-.475-.317c-.114-.1-.245-.2-.376-.293a2.064,2.064,0,0,1-.4-.309,16.942,16.942,0,1,1,13.18,3.567c-.324.05-.647.1-.954.127a41.81,41.81,0,0,1,8.3,18.232,36.5,36.5,0,0,0-15.448-71.21" transform="translate(-564.178 -161.154)" fill="#36c2d9"/>
          <path id="Path_110560" data-name="Path 110560" d="M684.574,258.841a36.4,36.4,0,0,0-3.874-10.792c-.293-.521-.583-1.021-.9-1.538-.309-.5-.639-.992-.967-1.488a36.767,36.767,0,0,0-8.351-8.646c-.114-.1-.245-.2-.378-.293a36.518,36.518,0,0,0-25.648-6.7c-.421.046-.859.112-1.3.181a36.508,36.508,0,1,0,41.625,30.545c-.067-.438-.131-.857-.214-1.272m-33.311,23.577a16.96,16.96,0,1,1,7.267-30.564,4.741,4.741,0,0,1,.392.272,16.952,16.952,0,0,1-7.659,30.292" transform="translate(-580.562 -138.839)" fill="#36c2d9"/>
        </g>
      </g>
    </g>
  </g>
</svg>
