<svg xmlns="http://www.w3.org/2000/svg" xmlns:xlink="http://www.w3.org/1999/xlink" width="377" height="476" viewBox="0 0 377 476">
  <defs>
    <clipPath id="clip-path">
      <rect id="Rectangle_15357" data-name="Rectangle 15357" width="377" height="476" transform="translate(0 3812)" fill="#fff"/>
    </clipPath>
  </defs>
  <g id="Mask_Group_34" data-name="Mask Group 34" transform="translate(0 -3812)" clip-path="url(#clip-path)">
    <g id="_88-BG-TRANSPARENT" data-name="88-BG-TRANSPARENT" transform="matrix(0.309, 0.951, -0.951, 0.309, 2295.139, -13220.789)" opacity="0.416">
      <path id="Path_119079" data-name="Path 119079" d="M922.6,340a164.1,164.1,0,0,0-63.385-101.061c-.6-.439-1.186-.868-1.7-1.316a164.289,164.289,0,0,0-115.39-30.134l-.168.028a163.624,163.624,0,0,0,60.341,98.9l.094.075a33.95,33.95,0,0,1,3.034,2.072c.6.429,1.186.868,1.764,1.214a5.747,5.747,0,0,1,1.111.971c.2.149.485.28.681.42a76.279,76.279,0,1,1-59.361-15.944c1.448-.224,2.9-.448,4.285-.569a188.194,188.194,0,0,1-37.35-82.027c-78.666,22.133-130.372,100.108-117.7,182.845,12.032,78.545,78.049,135.6,154.354,139.231A164.26,164.26,0,0,0,923.557,345.718c-.3-1.97-.588-3.855-.961-5.723" transform="translate(14917.773 7173.91)" fill="#fff"/>
      <path id="Path_119080" data-name="Path 119080" d="M751.54,187.534c-89.5,13.713-151.153,97.681-137.439,187.186.3,1.96.607,3.93.98,5.8a164.32,164.32,0,0,0,63.3,101.079c.588.439,1.186.868,1.764,1.214a163.821,163.821,0,0,0,115.409,30.217c1.9-.205,3.772-.485,5.741-.794A164.246,164.246,0,0,0,938.8,324.955C925.086,235.46,841.119,173.8,751.54,187.534M730.47,410.65a71.641,71.641,0,1,1,1.69,1.316c-.588-.429-1.186-.868-1.69-1.316" transform="translate(15044.826 7000.878)" fill="#fff"/>
    </g>
  </g>
</svg>
