<svg xmlns="http://www.w3.org/2000/svg" xmlns:xlink="http://www.w3.org/1999/xlink" width="185" height="606" viewBox="0 0 185 606">
  <defs>
    <clipPath id="clip-path">
      <rect id="Rectangle_15359" data-name="Rectangle 15359" width="185" height="606" transform="translate(1735 2876)" fill="#fff" stroke="#707070" stroke-width="1"/>
    </clipPath>
  </defs>
  <g id="Mask_Group_36" data-name="Mask Group 36" transform="translate(-1735 -2876)" clip-path="url(#clip-path)">
    <g id="_88-BG-TRANSPARENT" data-name="88-BG-TRANSPARENT" transform="translate(-2022.668 -13887.395) rotate(51)" opacity="0.416">
      <path id="Path_119079" data-name="Path 119079" d="M922.6,340a164.1,164.1,0,0,0-63.385-101.061c-.6-.439-1.186-.868-1.7-1.316a164.289,164.289,0,0,0-115.39-30.134l-.168.028a163.624,163.624,0,0,0,60.341,98.9l.094.075a33.95,33.95,0,0,1,3.034,2.072c.6.429,1.186.868,1.764,1.214a5.747,5.747,0,0,1,1.111.971c.2.149.485.28.681.42a76.279,76.279,0,1,1-59.361-15.944c1.448-.224,2.9-.448,4.285-.569a188.194,188.194,0,0,1-37.35-82.027c-78.666,22.133-130.372,100.108-117.7,182.845,12.032,78.545,78.049,135.6,154.354,139.231A164.26,164.26,0,0,0,923.557,345.718c-.3-1.97-.588-3.855-.961-5.723" transform="translate(14917.773 7173.91)" fill="#fff"/>
      <path id="Path_119082" data-name="Path 119082" d="M937.838,362.757a163.72,163.72,0,0,0-17.428-48.551c-1.316-2.343-2.623-4.593-4.033-6.917-1.391-2.24-2.875-4.462-4.35-6.693a165.438,165.438,0,0,0-37.573-38.9c-.513-.448-1.1-.878-1.7-1.316a164.286,164.286,0,0,0-115.39-30.133c-1.9.205-3.865.5-5.835.812C662.036,244.772,600.387,328.74,614.1,418.244c13.732,89.579,97.7,151.236,187.194,137.514,89.578-13.723,151.237-97.7,137.5-187.279-.3-1.97-.588-3.855-.962-5.722M787.974,468.83a76.3,76.3,0,1,1,32.691-137.5,21.4,21.4,0,0,1,1.765,1.223A76.266,76.266,0,0,1,787.974,468.83" transform="translate(15044.826 7363.622)" fill="#fff"/>
    </g>
  </g>
</svg>
