<svg xmlns="http://www.w3.org/2000/svg" width="1951.027" height="1951.023" viewBox="0 0 1951.027 1951.023">
  <g id="_88-bg" data-name="88-bg" transform="translate(3282.349 2381.529) rotate(150)" opacity="0.284">
    <path id="Path_119943" data-name="Path 119943" d="M1420.092,822.6c-59.245,389.163-424.466,656.989-814.848,597.338C216.492,1360.281-51.341,995.061,8.313,605.9c1.221-8.521,2.029-17.046,4.462-24.756C21.3,535.7,34.284,492.278,50.517,450.073c25.162-61.681,58.433-120.522,98.608-172.461,12.983-17.044,27.188-33.683,42.2-49.915,25.979-26.782,53.158-52.754,83.6-76.7,4.462-3.246,8.525-6.492,12.983-9.74a41.343,41.343,0,0,0,7.717-5.679,8.361,8.361,0,0,1,2.433-1.623,49.952,49.952,0,0,0,4.866-3.656A733.071,733.071,0,0,1,624.724,4.508C644.2,78.362,677.886,148.566,721.307,213.9A302.63,302.63,0,0,0,742,243.929C863.331,411.12,1042.292,519.465,1244.784,549.9a709.89,709.89,0,0,0,116.87,9.74c17.45,0,33.679-1.217,49.912-2.433,18.667,85.622,21.913,174.491,8.526,265.388M764.728,385.957c-90.092-13.8-175.717,9.742-242.671,58.841-3.25.813-5.683,3.246-7.708,5.275C446.983,499.988,399.5,574.654,386.516,663.525c-28.4,180.987,96.579,351.016,277.57,378.2,180.583,28,349.8-96.579,378.207-277.563,26.78-180.989-97.8-349.8-277.565-378.207m596.927,119.306c-35.713,0-71.416-3.246-108.345-8.523C1035.393,463.059,854.814,332.8,749.711,157.5A663.746,663.746,0,0,1,680.319.45,872.631,872.631,0,0,1,797.19,4.508c8.516,1.219,16.234,2.433,24.75,3.248,278.786,43.416,496.295,243.072,574.619,495.477-10.958,2.029-22.729,2.029-34.9,2.029" transform="translate(580.643 1656.942)" fill="#f3f3f3"/>
  </g>
</svg>
