<svg xmlns="http://www.w3.org/2000/svg" width="27.652" height="32.78" viewBox="0 0 27.652 32.78">
  <g id="Group_21692" data-name="Group 21692" transform="translate(0 0)">
    <path id="Path_119942" data-name="Path 119942" d="M401.118,218.5a7.285,7.285,0,0,0-2.045-2.37.179.179,0,0,1-.079-.054,7.407,7.407,0,0,0-5.147-1.345h-.013a6.758,6.758,0,0,0,.4,1.345,6.568,6.568,0,0,0,1.012,1.77c.133.175.279.346.433.512a8.623,8.623,0,0,0,.858.787c.046.033.087.067.133.1a.427.427,0,0,1,.079.058.085.085,0,0,0,.025.017.089.089,0,0,1,.017.025c.013,0,.025.013.033.013a3.4,3.4,0,1,1-2.645-.712,1.069,1.069,0,0,1,.187-.021,8.469,8.469,0,0,1-1.666-3.661,7.33,7.33,0,0,0,1.087,14.326,7.56,7.56,0,0,1,1.2-2.461,7.822,7.822,0,0,1,4.868-3.078,7.682,7.682,0,0,1,.267-3.1,7.237,7.237,0,0,1,.991-2.149m.825,2.4c-.012-.087-.033-.179-.046-.254a6.693,6.693,0,0,0-.487-1.57,6.81,6.81,0,0,0-.712,1.612,7.056,7.056,0,0,0-.246,3.261c.013.087.021.179.033.267a2.093,2.093,0,0,0-.258.033,7.338,7.338,0,0,0-5.88,5.081,7.151,7.151,0,0,0,1.458-.075,7.3,7.3,0,0,0,5.168-3.473,7.6,7.6,0,0,0,.725-1.612,7.34,7.34,0,0,0,.246-3.269" transform="translate(-387.365 -206.037)" fill="#fff"/>
    <path id="Path_119943" data-name="Path 119943" d="M417.19,200.135a7.329,7.329,0,0,0-14.489,2.224,1.62,1.62,0,0,0,.046.254,7.68,7.68,0,0,0,.387,1.345,7.591,7.591,0,0,0,1.012,1.77c.133.175.279.346.433.512a8.632,8.632,0,0,0,.858.787c.046.033.087.067.133.1a.423.423,0,0,1,.079.058.086.086,0,0,0,.025.017.512.512,0,0,1,.05.038,7.523,7.523,0,0,0,3.3,1.291,7.234,7.234,0,0,1,.991-2.149,3.1,3.1,0,0,1,.212-.308,7.758,7.758,0,0,1,5.16-3.14,7.285,7.285,0,0,1,1.2-.1c.179,0,.346.012.512.025a7.55,7.55,0,0,0,.087-2.724m-6.726,4.481a3.33,3.33,0,0,1-2.49-.6.179.179,0,0,1-.079-.054,3.3,3.3,0,0,1-1.312-2.191,3.4,3.4,0,1,1,3.881,2.849m6.126-1.224a7.831,7.831,0,0,0-1.112.087,7.334,7.334,0,0,0-5.168,3.482,6.812,6.812,0,0,0-.712,1.612,8.955,8.955,0,0,0,1.2-.042c.087-.013.167-.025.254-.033a7.365,7.365,0,0,0,5.9-5.085,2,2,0,0,0-.358-.021" transform="translate(-396.265 -193.919)" fill="#fff"/>
    <path id="Path_119944" data-name="Path 119944" d="M424.247,222.891a7.327,7.327,0,0,0-6.884-6.205,2,2,0,0,0-.358-.021,7.835,7.835,0,0,0-1.112.087,7.334,7.334,0,0,0-5.168,3.482,6.811,6.811,0,0,0-.712,1.612,7.057,7.057,0,0,0-.246,3.261c.012.087.021.179.033.267a2.082,2.082,0,0,0-.258.033,7.338,7.338,0,0,0-5.88,5.081,7.111,7.111,0,0,0-.246,3.269,7.343,7.343,0,0,0,7.238,6.218,7.843,7.843,0,0,0,1.116-.087q.175-.025.35-.062c.237-.05.475-.108.7-.179s.454-.154.675-.246.429-.192.637-.3.408-.233.6-.362.379-.271.558-.416.35-.3.516-.462.316-.333.466-.512a6.812,6.812,0,0,0,.416-.55,7.357,7.357,0,0,0,1.27-3.815,7.281,7.281,0,0,0-1.312-4.548,6.968,6.968,0,0,0-1.037-1.179c-.375-.346-.808-.62-1.154-1a3.042,3.042,0,0,1-.558-.845,3.233,3.233,0,0,1-.267-.891,3.414,3.414,0,0,1,2.849-3.881A4.232,4.232,0,0,1,417,220.6a3.4,3.4,0,0,1,.521,6.763c-.067.012-.133.021-.187.033A8.409,8.409,0,0,1,419,231.054a7.343,7.343,0,0,0,5.252-8.163m-10.22,9.241a3.428,3.428,0,0,1-2.861,3.881,3.489,3.489,0,0,1-.512.033,3.4,3.4,0,0,1-.521-6.759,2.977,2.977,0,0,1,.533-.046,3.339,3.339,0,0,1,1.957.633.652.652,0,0,1,.079.058,3.412,3.412,0,0,1,1.324,2.2" transform="translate(-396.68 -207.194)" fill="#fff"/>
  </g>
</svg>
