<svg xmlns="http://www.w3.org/2000/svg" width="105.864" height="86" viewBox="0 0 105.864 86">
  <g id="Group_20816" data-name="Group 20816" transform="translate(3305.031 1043.379)">
    <path id="Path_110562" data-name="Path 110562" d="M550.969,311.685v-3.943h.3l1.645,3.714h-.162l1.65-3.714h.3v3.943h-.318V308.15h.151l-1.572,3.535h-.252l-1.571-3.535h.151v3.535Z" transform="translate(-3856 -1269.109)" fill="#8b8e90"/>
    <path id="Path_110563" data-name="Path 110563" d="M562.488,311.685l1.717-3.943h.313l1.745,3.943H565.9l-.492-1.136.163.084h-2.428l.19-.084-.481,1.136Zm1.868-3.524L563.4,310.4l-.129-.067h2.171l-.1.067-.978-2.243Z" transform="translate(-3859.783 -1269.109)" fill="#8b8e90"/>
    <path id="Path_110564" data-name="Path 110564" d="M574.082,311.685v-3.943h1.555a1.42,1.42,0,0,1,.946.285,1,1,0,0,1,.335.806,1.053,1.053,0,0,1-.15.574.977.977,0,0,1-.42.363,1.449,1.449,0,0,1-.621.126l.106-.062h.079a.77.77,0,0,1,.408.109.739.739,0,0,1,.285.372l.548,1.371h-.38l-.515-1.309a.579.579,0,0,0-.308-.367,1.4,1.4,0,0,0-.514-.081h-1.007v1.757Zm.347-2.048h1.164a1.1,1.1,0,0,0,.724-.207.833.833,0,0,0,0-1.189,1.12,1.12,0,0,0-.724-.2h-1.164Z" transform="translate(-3863.591 -1269.109)" fill="#8b8e90"/>
    <path id="Path_110565" data-name="Path 110565" d="M584.785,311.685v-3.943h.347v1.812h.011l1.969-1.812h.464l-2.232,2.031.005-.2,2.389,2.115h-.476l-2.12-1.874h-.011v1.874Z" transform="translate(-3867.106 -1269.109)" fill="#8b8e90"/>
    <path id="Path_110566" data-name="Path 110566" d="M594.914,311.685v-3.943h2.45v.3h-2.114v1.5h1.991v.3h-1.991v1.555h2.114v.3Z" transform="translate(-3870.433 -1269.109)" fill="#8b8e90"/>
    <path id="Path_110567" data-name="Path 110567" d="M605.358,311.685v-3.641h-1.432v-.3h3.205v.3H605.7v3.641Z" transform="translate(-3873.393 -1269.109)" fill="#8b8e90"/>
    <rect id="Rectangle_5277" data-name="Rectangle 5277" width="0.347" height="3.943" transform="translate(-3262.324 -961.367)" fill="#8b8e90"/>
    <path id="Path_110568" data-name="Path 110568" d="M621.592,311.685v-3.943h.28l2.64,3.535h-.123v-3.535h.318v3.943h-.274l-2.64-3.535h.118v3.535Z" transform="translate(-3879.195 -1269.109)" fill="#8b8e90"/>
    <path id="Path_110569" data-name="Path 110569" d="M634.443,311.708a2.171,2.171,0,0,1-1.066-.238,1.506,1.506,0,0,1-.643-.691,2.518,2.518,0,0,1-.216-1.091,2.4,2.4,0,0,1,.224-1.077,1.612,1.612,0,0,1,.641-.694,1.954,1.954,0,0,1,1-.243,1.922,1.922,0,0,1,.744.131,1.838,1.838,0,0,1,.571.384l-.152.279a2.2,2.2,0,0,0-.355-.277,1.274,1.274,0,0,0-.363-.15,1.839,1.839,0,0,0-.445-.048,1.4,1.4,0,0,0-1.11.444,2.257,2.257,0,0,0-.009,2.52,1.484,1.484,0,0,0,1.18.436,2.8,2.8,0,0,0,.565-.055,2.533,2.533,0,0,0,.509-.163l-.084.224v-1.477h-1.046v-.291h1.354v1.8a2.325,2.325,0,0,1-.584.2,3.374,3.374,0,0,1-.719.079" transform="translate(-3882.784 -1269.087)" fill="#8b8e90"/>
    <path id="Path_110570" data-name="Path 110570" d="M650.318,311.685l1.717-3.943h.314l1.745,3.943h-.363l-.492-1.136.162.084h-2.427l.19-.084-.482,1.136Zm1.868-3.524-.956,2.243-.129-.067h2.17l-.1.067-.978-2.243Z" transform="translate(-3888.63 -1269.109)" fill="#8b8e90"/>
    <path id="Path_110572" data-name="Path 110572" d="M663.512,311.708a2.171,2.171,0,0,1-1.066-.238,1.506,1.506,0,0,1-.643-.691,2.519,2.519,0,0,1-.216-1.091,2.4,2.4,0,0,1,.224-1.077,1.614,1.614,0,0,1,.64-.694,1.958,1.958,0,0,1,1-.243,1.92,1.92,0,0,1,.744.131,1.823,1.823,0,0,1,.571.384l-.151.279a2.2,2.2,0,0,0-.355-.277,1.275,1.275,0,0,0-.363-.15,1.844,1.844,0,0,0-.445-.048,1.4,1.4,0,0,0-1.11.444,2.259,2.259,0,0,0-.008,2.52,1.484,1.484,0,0,0,1.18.436,2.8,2.8,0,0,0,.565-.055,2.545,2.545,0,0,0,.509-.163l-.084.224v-1.477h-1.046v-.291h1.353v1.8a2.3,2.3,0,0,1-.584.2,3.368,3.368,0,0,1-.719.079" transform="translate(-3892.331 -1269.087)" fill="#8b8e90"/>
    <path id="Path_110573" data-name="Path 110573" d="M672.849,311.685v-3.943h2.45v.3h-2.115v1.5h1.991v.3h-1.991v1.555H675.3v.3Z" transform="translate(-3896.03 -1269.109)" fill="#8b8e90"/>
    <path id="Path_110575" data-name="Path 110575" d="M682.694,311.685v-3.943h.279l2.64,3.535h-.122v-3.535h.318v3.943h-.274L682.9,308.15h.118v3.535Z" transform="translate(-3899.263 -1269.109)" fill="#8b8e90"/>
    <path id="Path_110577" data-name="Path 110577" d="M695.44,311.708a1.887,1.887,0,0,1-.987-.243,1.564,1.564,0,0,1-.619-.7,2.845,2.845,0,0,1,0-2.156,1.564,1.564,0,0,1,.619-.694,1.881,1.881,0,0,1,.987-.243,2.041,2.041,0,0,1,.755.131,1.624,1.624,0,0,1,.576.389l-.145.28a1.91,1.91,0,0,0-.549-.367,1.651,1.651,0,0,0-.637-.114,1.325,1.325,0,0,0-1.08.444,2.31,2.31,0,0,0,0,2.5,1.32,1.32,0,0,0,1.08.447,1.638,1.638,0,0,0,.637-.115,1.893,1.893,0,0,0,.549-.366l.145.28a1.6,1.6,0,0,1-.579.388,2.026,2.026,0,0,1-.752.132" transform="translate(-3902.852 -1269.087)" fill="#8b8e90"/>
    <path id="Path_110578" data-name="Path 110578" d="M705.071,311.685v-1.835l.084.263-1.605-2.372h.4l1.354,2.042h-.1l1.354-2.042h.386l-1.606,2.372.079-.263v1.835Z" transform="translate(-3906.113 -1269.109)" fill="#8b8e90"/>
    <path id="Path_110555" data-name="Path 110555" d="M555.855,295.137a5.83,5.83,0,0,1-3.587-.981,3.488,3.488,0,0,1-.481-4.959,3.328,3.328,0,0,1,2.107-1.053v.472a3.279,3.279,0,0,1-1.88-1.117,3.142,3.142,0,0,1-.717-2.08,3.031,3.031,0,0,1,1.226-2.561,6.474,6.474,0,0,1,6.675,0,3.04,3.04,0,0,1,1.217,2.561,3.318,3.318,0,0,1-.681,2.107,2.772,2.772,0,0,1-1.808,1.054v-.436a3.2,3.2,0,0,1,2.834,3.305,3.2,3.2,0,0,1-1.3,2.706,5.864,5.864,0,0,1-3.606.981m0-2.162a2.847,2.847,0,0,0,1.735-.436,1.52,1.52,0,0,0,.572-1.289,1.5,1.5,0,0,0-.572-1.281,3.717,3.717,0,0,0-3.46,0,1.487,1.487,0,0,0-.582,1.281,1.511,1.511,0,0,0,.582,1.289,2.852,2.852,0,0,0,1.725.436m0-5.594a2.168,2.168,0,0,0,1.471-.445,1.522,1.522,0,0,0,.508-1.208,1.5,1.5,0,0,0-.508-1.2,2.2,2.2,0,0,0-1.471-.436,2.172,2.172,0,0,0-1.453.436,1.5,1.5,0,0,0-.508,1.2,1.525,1.525,0,0,0,.508,1.208,2.139,2.139,0,0,0,1.453.445" transform="translate(-3856 -1260.632)" fill="#36c2d9"/>
    <path id="Path_110556" data-name="Path 110556" d="M574.707,295.137a5.83,5.83,0,0,1-3.587-.981,3.488,3.488,0,0,1-.481-4.959,3.328,3.328,0,0,1,2.107-1.053v.472a3.279,3.279,0,0,1-1.88-1.117,3.142,3.142,0,0,1-.717-2.08,3.031,3.031,0,0,1,1.226-2.561,6.474,6.474,0,0,1,6.675,0,3.04,3.04,0,0,1,1.217,2.561,3.318,3.318,0,0,1-.681,2.107,2.773,2.773,0,0,1-1.808,1.054v-.436a3.2,3.2,0,0,1,2.834,3.305,3.2,3.2,0,0,1-1.3,2.706,5.864,5.864,0,0,1-3.606.981m0-2.162a2.847,2.847,0,0,0,1.735-.436,1.521,1.521,0,0,0,.572-1.289,1.5,1.5,0,0,0-.572-1.281,3.717,3.717,0,0,0-3.46,0,1.486,1.486,0,0,0-.582,1.281,1.511,1.511,0,0,0,.582,1.289,2.852,2.852,0,0,0,1.725.436m0-5.594a2.169,2.169,0,0,0,1.471-.445,1.522,1.522,0,0,0,.508-1.208,1.5,1.5,0,0,0-.508-1.2,2.2,2.2,0,0,0-1.471-.436,2.172,2.172,0,0,0-1.453.436,1.5,1.5,0,0,0-.508,1.2,1.524,1.524,0,0,0,.508,1.208,2.139,2.139,0,0,0,1.453.445" transform="translate(-3862.192 -1260.632)" fill="#36c2d9"/>
    <path id="Path_110557" data-name="Path 110557" d="M600.779,295.137a7.151,7.151,0,0,1-3.524-.817,5.59,5.59,0,0,1-2.262-2.3,8.114,8.114,0,0,1,0-6.984,5.6,5.6,0,0,1,2.262-2.289,7.144,7.144,0,0,1,3.524-.818,7.447,7.447,0,0,1,2.416.373,5.119,5.119,0,0,1,1.853,1.081l-.89,2.234a5.875,5.875,0,0,0-1.59-.926,4.964,4.964,0,0,0-1.7-.273,3.506,3.506,0,0,0-2.751,1.062,5.344,5.344,0,0,0,0,6.094,3.486,3.486,0,0,0,2.751,1.072,4.964,4.964,0,0,0,1.7-.273,5.875,5.875,0,0,0,1.59-.926l.89,2.234a5.352,5.352,0,0,1-1.853,1.071,7.268,7.268,0,0,1-2.416.382" transform="translate(-3870.2 -1260.632)" fill="#36c2d9"/>
    <path id="Path_110558" data-name="Path 110558" d="M617.425,295.035V282.23h2.833v10.426h5.777v2.379Z" transform="translate(-3877.827 -1260.73)" fill="#36c2d9"/>
    <rect id="Rectangle_5278" data-name="Rectangle 5278" width="2.833" height="12.805" transform="translate(-3247.295 -978.5)" fill="#36c2d9"/>
    <path id="Path_110571" data-name="Path 110571" d="M655.162,295.137a7.151,7.151,0,0,1-3.524-.817,5.588,5.588,0,0,1-2.261-2.3,8.108,8.108,0,0,1,0-6.984,5.6,5.6,0,0,1,2.261-2.289,7.145,7.145,0,0,1,3.524-.818,7.448,7.448,0,0,1,2.416.373,5.113,5.113,0,0,1,1.853,1.081l-.89,2.234a5.876,5.876,0,0,0-1.59-.926,4.962,4.962,0,0,0-1.7-.273,3.509,3.509,0,0,0-2.752,1.062,5.347,5.347,0,0,0,0,6.094,3.489,3.489,0,0,0,2.752,1.072,4.962,4.962,0,0,0,1.7-.273,5.876,5.876,0,0,0,1.59-.926l.89,2.234a5.346,5.346,0,0,1-1.853,1.071,7.268,7.268,0,0,1-2.416.382" transform="translate(-3888.061 -1260.632)" fill="#36c2d9"/>
    <path id="Path_110574" data-name="Path 110574" d="M671.807,295.035V282.23h2.833v5.576h.037l5.249-5.576h3.36l-6.448,6.7.018-1.162,6.83,7.266h-3.469l-5.54-5.849h-.037v5.849Z" transform="translate(-3895.687 -1260.73)" fill="#36c2d9"/>
    <path id="Path_110576" data-name="Path 110576" d="M698.285,295.137a10.534,10.534,0,0,1-2.888-.382,7.4,7.4,0,0,1-2.289-1.053l.835-2.216a7.569,7.569,0,0,0,2.761,1.154,8.062,8.062,0,0,0,1.6.154,3.283,3.283,0,0,0,1.862-.4,1.209,1.209,0,0,0,.554-1.017,1.043,1.043,0,0,0-.372-.862,3.493,3.493,0,0,0-1.354-.518l-2.143-.436a5.1,5.1,0,0,1-2.634-1.235,3.14,3.14,0,0,1-.872-2.325,3.569,3.569,0,0,1,.654-2.143,4.266,4.266,0,0,1,1.843-1.417,7.05,7.05,0,0,1,2.788-.509,8.218,8.218,0,0,1,2.543.382,5.124,5.124,0,0,1,1.943,1.089l-.835,2.071a5.218,5.218,0,0,0-1.662-.9,6.568,6.568,0,0,0-2.044-.3,3.255,3.255,0,0,0-1.807.418,1.307,1.307,0,0,0-.627,1.144,1.118,1.118,0,0,0,.381.88,3.023,3.023,0,0,0,1.344.537l2.107.417a5.234,5.234,0,0,1,2.67,1.217,3.033,3.033,0,0,1,.872,2.271,3.466,3.466,0,0,1-.645,2.089,4.225,4.225,0,0,1-1.817,1.389,7.039,7.039,0,0,1-2.769.5" transform="translate(-3902.684 -1260.632)" fill="#36c2d9"/>
    <path id="Path_110554" data-name="Path 110554" d="M620.376,215.993a11.8,11.8,0,0,0-4.56-7.27c-.043-.032-.085-.062-.122-.095a11.819,11.819,0,0,0-8.3-2.168l-.012,0a11.771,11.771,0,0,0,4.341,7.115l.007.005a2.454,2.454,0,0,1,.218.149c.043.031.085.062.127.087a.415.415,0,0,1,.08.07c.014.011.035.02.049.03a5.488,5.488,0,1,1-4.271-1.147c.1-.016.209-.032.308-.041a13.54,13.54,0,0,1-2.687-5.9,11.813,11.813,0,1,0,14.892,9.574c-.021-.142-.042-.277-.069-.412" transform="translate(-3871.101 -1235.818)" fill="#8b8e90"/>
    <path id="Path_110559" data-name="Path 110559" d="M622.216,185.759a11.826,11.826,0,0,0-9.887,13.466c.021.141.044.283.07.417a11.821,11.821,0,0,0,4.554,7.272,1.541,1.541,0,0,0,.127.087,11.786,11.786,0,0,0,8.3,2.174c.136-.015.271-.035.413-.057a11.816,11.816,0,1,0-3.579-23.359M620.7,201.81a5.157,5.157,0,1,1,.122.095c-.042-.031-.085-.062-.122-.095" transform="translate(-3876.108 -1229)" fill="#8b8e90"/>
    <path id="Path_110561" data-name="Path 110561" d="M637.458,208.52a11.827,11.827,0,0,0-9.887,13.466c.022.142.043.277.07.418a11.82,11.82,0,0,0,4.554,7.271c.042.025.085.056.127.088a11.767,11.767,0,0,0,8.3,2.173h.006a11.608,11.608,0,0,0-1.26-3.492,4.322,4.322,0,0,0-.29-.5c-.1-.161-.207-.321-.313-.481a11.587,11.587,0,0,0-2.485-2.649l-.042-.032-.021-.015a1.306,1.306,0,0,1-.154-.1c-.037-.032-.079-.063-.122-.095a.667.667,0,0,1-.129-.1,5.483,5.483,0,1,1,4.266,1.154c-.1.016-.209.032-.309.041a13.532,13.532,0,0,1,2.687,5.9,11.814,11.814,0,0,0-5-23.047" transform="translate(-3881.114 -1236.476)" fill="#36c2d9"/>
    <path id="Path_110560" data-name="Path 110560" d="M635.619,238.754a11.779,11.779,0,0,0-1.254-3.493c-.095-.169-.189-.33-.29-.5s-.207-.321-.313-.482a11.9,11.9,0,0,0-2.7-2.8c-.037-.032-.079-.063-.122-.095a11.819,11.819,0,0,0-8.3-2.168c-.136.015-.278.036-.42.058a11.816,11.816,0,1,0,13.472,9.886c-.021-.142-.042-.277-.069-.412m-10.781,7.631a5.489,5.489,0,1,1,2.352-9.892,1.537,1.537,0,0,1,.127.088,5.487,5.487,0,0,1-2.479,9.8" transform="translate(-3876.108 -1243.294)" fill="#36c2d9"/>
  </g>
</svg>
