<svg xmlns="http://www.w3.org/2000/svg" width="1481.409" height="1695.407" viewBox="0 0 1481.409 1695.407">
  <g id="_88-BG-TRANSPARENT" data-name="88-BG-TRANSPARENT" transform="matrix(-0.819, -0.574, 0.574, -0.819, 9414.261, 16656.206)" opacity="0.085">
    <path id="Path_119079" data-name="Path 119079" d="M1295.516,493.008a352.02,352.02,0,0,0-135.971-216.792c-1.282-.941-2.543-1.862-3.644-2.823A352.427,352.427,0,0,0,908.37,208.751l-.361.06a351,351,0,0,0,129.442,212.167l.2.16a72.854,72.854,0,0,1,6.509,4.445c1.281.921,2.543,1.862,3.784,2.6a12.332,12.332,0,0,1,2.383,2.083c.421.32,1.041.6,1.461.9A163.079,163.079,0,0,1,1111.1,533.859c13.7,89.372-47.881,173.017-137.072,186.694-89.213,13.657-172.817-47.72-186.514-137.112-13.678-89.192,47.72-172.8,136.93-186.474,3.105-.481,6.229-.961,9.193-1.222A403.709,403.709,0,0,1,853.52,219.785C684.769,267.264,573.85,434.534,601.045,612.017,626.856,780.509,768.474,902.9,932.159,910.692a351.618,351.618,0,0,0,70.449-3.664c107.735-16.5,196.587-80.281,248.672-166.97A354.42,354.42,0,0,0,1286,662.6a349.329,349.329,0,0,0,11.575-157.317c-.64-4.226-1.261-8.27-2.062-12.276" transform="translate(14917.773 7395.834)" fill="#58d0f6"/>
    <path id="Path_119080" data-name="Path 119080" d="M911.117,189.726c-192,29.417-324.248,209.543-294.831,401.544.64,4.205,1.3,8.43,2.1,12.435A352.494,352.494,0,0,0,754.178,820.538c1.262.941,2.544,1.862,3.785,2.6a351.422,351.422,0,0,0,247.57,64.821c4.066-.44,8.091-1.041,12.316-1.7,137.653-21.086,244.668-119.59,283.4-244.427a349.359,349.359,0,0,0,11.574-157.318c-29.417-191.981-209.542-324.247-401.7-294.79m-45.2,478.621A162.637,162.637,0,0,1,802.76,562.674C789.1,473.482,850.48,389.877,939.693,376.2c89.19-13.677,173,47.7,186.653,136.892,13.677,89.212-47.86,173.017-137.073,186.695A162.607,162.607,0,0,1,869.544,671.17c-1.262-.92-2.543-1.862-3.625-2.823" transform="translate(15207.779 7000.878)" fill="#58d0f6"/>
    <path id="Path_119081" data-name="Path 119081" d="M926.358,212.487C734.377,241.9,602.111,422.05,631.528,614.031c.661,4.226,1.282,8.251,2.1,12.456A352.445,352.445,0,0,0,769.421,843.3c1.242.761,2.524,1.682,3.785,2.623,69.326,50.244,156.8,75.535,247.57,64.8l.18-.02A346.184,346.184,0,0,0,983.39,806.573a128.787,128.787,0,0,0-8.652-14.839c-2.983-4.806-6.166-9.572-9.332-14.338a345.555,345.555,0,0,0-74.112-79c-.421-.321-.842-.621-1.261-.942a7.58,7.58,0,0,0-.641-.46,38.893,38.893,0,0,1-4.586-3.064c-1.1-.962-2.362-1.883-3.625-2.824a19.857,19.857,0,0,1-3.843-2.983,162.521,162.521,0,0,1-59.315-102.669c-13.677-89.212,47.72-172.817,136.913-186.494,89.21-13.657,173,47.7,186.673,136.892,13.657,89.212-47.88,173.037-137.072,186.695-3.124.48-6.248.961-9.212,1.221a403.5,403.5,0,0,1,80.121,175.961c168.771-47.279,279.87-214.79,252.636-392.453C1298.665,315.3,1118.519,183.03,926.358,212.487" transform="translate(15497.76 7433.909)" fill="#58d0f6"/>
    <path id="Path_119082" data-name="Path 119082" d="M1310.758,515.769a351.21,351.21,0,0,0-37.387-104.151c-2.823-5.027-5.627-9.853-8.651-14.839-2.983-4.806-6.166-9.572-9.332-14.358a354.9,354.9,0,0,0-80.6-83.445c-1.1-.962-2.362-1.883-3.644-2.824a352.423,352.423,0,0,0-247.531-64.641c-4.066.441-8.291,1.081-12.516,1.742C719.115,262.671,586.869,442.8,616.286,634.8,645.743,826.96,825.87,959.226,1017.85,929.789c192.161-29.437,324.428-209.583,294.971-401.745-.641-4.225-1.261-8.27-2.063-12.275M989.274,743.314c-89.211,13.678-172.836-47.9-186.513-137.112-13.677-89.192,47.72-172.8,136.932-186.474A162.557,162.557,0,0,1,1059.4,448.344a45.942,45.942,0,0,1,3.785,2.623,162.545,162.545,0,0,1,63.159,105.653c13.677,89.212-47.88,173.017-137.073,186.694" transform="translate(15207.778 7828.863)" fill="#58d0f6"/>
  </g>
</svg>
