<svg xmlns="http://www.w3.org/2000/svg" xmlns:xlink="http://www.w3.org/1999/xlink" width="1442" height="1067" viewBox="0 0 1442 1067">
  <defs>
    <clipPath id="clip-path">
      <rect id="Rectangle_15367" data-name="Rectangle 15367" width="1442" height="1067" fill="#fff" stroke="#707070" stroke-width="1"/>
    </clipPath>
  </defs>
  <g id="Mask_Group_44" data-name="Mask Group 44" clip-path="url(#clip-path)">
    <path id="_88-bg" data-name="88-bg" d="M2656.629,887.3c-57.418-375.913-373.669-651.344-741.507-668.389-12.111-2.242-25.122-2.242-38.578-2.242-39.475,0-78.952,3.589-119.772,9.419C1515.882,263.316,1316.262,407.312,1200.08,601.1a733.41,733.41,0,0,0-76.708,173.6c-34.989,109.006-45.757,228.777-26.466,351.241,1.346,9.42,2.243,19.289,3.589,28.709-8.524,0-17.944,2.242-27.813,3.589-307.727,48-547.272,268.252-633.4,547.272a765.881,765.881,0,0,0-26.466,352.139c60.11,389.369,396.547,669.734,779.639,669.734,39.923,0,79.4-3.589,120.219-9.42q18.84-2.692,37.68-6.73c25.57-5.383,51.138-11.661,75.812-19.287s48.9-16.6,72.669-26.467c23.327-9.869,46.2-20.635,68.635-32.748s43.961-25.12,64.6-39.026,40.822-29.158,60.11-44.858,37.68-32.3,55.624-49.792c17.495-17.5,34.093-35.887,50.241-55.176a732.4,732.4,0,0,0,44.859-59.214c82.987-121.116,130.088-264.214,136.817-410.9,8.074-173.6-40.371-348.1-141.3-489.853-32.3-46.654-69.532-88.371-111.7-126.95-40.371-37.232-87.024-66.839-124.257-107.659-25.12-27.813-45.755-57.418-60.111-91.062-14.355-31.4-23.774-62.353-28.709-96-30.055-200.068,106.762-386.679,306.832-418.08a455.664,455.664,0,0,1,55.174-3.589c178.089,0,335.092,128.295,362.9,310.42,30.952,200.068-106.763,388.025-306.832,418.08-7.177,1.346-14.354,2.243-20.185,3.589,89.717,113.94,152.07,248.067,179.434,393.856,377.258-106.315,626.67-481.331,565.663-879.223M1555.806,1882.7c29.606,199.17-108.109,387.126-308.177,418.079-17.942,2.691-36.784,3.589-55.174,3.589-178.089,0-334.2-129.191-362.906-311.317-29.605-198.723,108.11-386.679,306.832-416.734a320.421,320.421,0,0,1,57.42-4.935,359.63,359.63,0,0,1,210.833,68.185c3.589,2.691,5.831,3.588,8.523,6.28,74.017,55.175,126.949,139.06,142.65,236.851" transform="translate(-1246.58 -1026.024)" fill="#eaf9fd"/>
  </g>
</svg>
